<svg xmlns="http://www.w3.org/2000/svg" data-name="Layer 1" viewBox="0 0 64 64"><path d="M55.75,3.18a1,1,0,0,0-.94-.26L45.72,5.14a1,1,0,0,0-.77,1v1H33a10,10,0,0,0-3.49.64,3.69,3.69,0,0,0-.58-.09,22.05,22.05,0,0,1-8.61-2.12A3,3,0,1,0,17.69,11c.25.12.5.22.76.33a35.09,35.09,0,0,1-4.09-.48,3,3,0,1,0-1.08,5.9,41.34,41.34,0,0,0,7.47.67c.73,0,1.43,0,2.12-.06a10.16,10.16,0,0,0,1.59,5.33,12,12,0,1,0,17,0,10.09,10.09,0,0,0,1.35-3.19l2.16.46a1,1,0,0,0,.7,1.15l4.75,1.5a1,1,0,0,0,1.28-.72L56,4.12A1,1,0,0,0,55.75,3.18ZM18.07,7.82a1,1,0,0,1,1.33-.47,24.59,24.59,0,0,0,7.11,2.11,10.08,10.08,0,0,0-1.58,1.68l-.27,0a26.74,26.74,0,0,1-6.11-2A1,1,0,0,1,18.07,7.82Zm-4.43,6.92c-.36-.06-.9-.27-.8-1.16a.92.92,0,0,1,1.16-.8,37.09,37.09,0,0,0,9.69.47,9.82,9.82,0,0,0-.63,2.06A41.41,41.41,0,0,1,13.64,14.74ZM43,31.11a10,10,0,1,1-8.4-9.86,3,3,0,0,0-.67,1.92c-.31,0-.61-.06-.93-.06a8,8,0,1,0,5.71,2.41,10.08,10.08,0,0,0,1.52-1.31A10,10,0,0,1,43,31.11ZM36.26,19.59a12,12,0,0,0-6.6,0,4.08,4.08,0,1,1,6.6,0ZM39,31.11a6,6,0,1,1-6-6A6,6,0,0,1,39,31.11Zm3.24-13.82a1,1,0,0,0-1.2.86c-.52,2.26-.85,3.74-3.56,5.8-.18.1-.45.25-.6.17s-.47-.24-.71-.35a.9.9,0,0,1,.2-1.49A6.42,6.42,0,0,0,39,17.2a6.09,6.09,0,1,0-11.31,3.12,10.9,10.9,0,0,0-1.71,1,8.08,8.08,0,0,1-1.16-4.12,8.36,8.36,0,0,1,5-7.47A7.83,7.83,0,0,1,33,9.11H45v8.77ZM50,20.34l-3-1V6.9l6.73-1.65Z"/><path d="M55,35.11H47a1,1,0,0,0,0,2h7v22H10v-2H20a1,1,0,0,0,1-1v-4a1,1,0,0,0-1-1H10v-14h9a1,1,0,1,0,0-2H9a1,1,0,0,0-1,1v24a1,1,0,0,0,1,1H55a1,1,0,0,0,1-1v-24A1,1,0,0,0,55,35.11Zm-36,18v2H10v-2Z"/><path d="M32 27.11v.05a2.5 2.5 0 0 0 .5 4.95h1a.5.5 0 0 1 .5.5.5.5 0 0 1-.5.5H31a1 1 0 0 0 0 2h1a1 1 0 0 0 1 1h0a1 1 0 0 0 1-1v0a2.5 2.5 0 0 0-.5-5h-1a.5.5 0 0 1-.5-.5.51.51 0 0 1 .5-.5H35a1 1 0 0 0 0-2H34a1 1 0 0 0-2 0zM20 42.11a1 1 0 0 1 .31-.71 1 1 0 0 1 .69-.29 1 1 0 1 0 0-2 3 3 0 0 0-3 3 3 3 0 0 0 3 3H45a3 3 0 0 0 3-3 3 3 0 0 0-3-3 1 1 0 0 0 0 2 1 1 0 0 1 .7 1.72 1 1 0 0 1-.7.28H21A1 1 0 0 1 20 42.11zM25 56.11v-4a1 1 0 0 0-2 0v4a1 1 0 0 0 2 0z"/></svg>