<svg xmlns="http://www.w3.org/2000/svg" data-name="Layer 1" viewBox="0 0 512 512"><rect width="137" height="137" x="82.5" y="82.5" fill="#c8c5cc" rx="30"/><rect width="47" height="47" x="127.5" y="127.5" fill="#8b8893" rx="5" transform="rotate(90 151 151)"/><rect width="137" height="137" x="292.5" y="82.5" fill="#c8c5cc" rx="30"/><rect width="47" height="47" x="337.5" y="127.5" fill="#8b8893" rx="5" transform="rotate(90 361 151)"/><rect width="137" height="137" x="82.5" y="292.5" fill="#c8c5cc" rx="30"/><rect width="47" height="47" x="127.5" y="337.5" fill="#8b8893" rx="5" transform="rotate(90 151 361)"/><path fill="#8b8893" d="M473.5,263.5H38.5a7.5,7.5,0,0,1,0-15h435a7.5,7.5,0,0,1,0,15Z"/><path fill="#3c3b41" d="M489.5.00019h-77a7.5,7.5,0,0,0,0,15h77a7.5082,7.5082,0,0,1,7.5,7.5v77a7.5,7.5,0,0,0,15,0v-77A22.52523,22.52523,0,0,0,489.5.00019Zm-482,107a7.50006,7.50006,0,0,0,7.5-7.5v-77a7.5082,7.5082,0,0,1,7.5-7.5h77a7.5,7.5,0,0,0,0-15h-77a22.52523,22.52523,0,0,0-22.5,22.5v77A7.50006,7.50006,0,0,0,7.5,107.00019Zm497,298a7.50006,7.50006,0,0,0-7.5,7.5v77a7.5082,7.5082,0,0,1-7.5,7.5h-77a7.5,7.5,0,0,0,0,15h77a22.52523,22.52523,0,0,0,22.5-22.5v-77A7.50006,7.50006,0,0,0,504.5,405.00019Zm-405,92h-77a7.5082,7.5082,0,0,1-7.5-7.5v-77a7.5,7.5,0,0,0-15,0v77a22.52523,22.52523,0,0,0,22.5,22.5h77a7.5,7.5,0,0,0,0-15Zm-24.5-384.5v77a37.54226,37.54226,0,0,0,37.5,37.5h77a37.54225,37.54225,0,0,0,37.5-37.5v-77a37.54226,37.54226,0,0,0-37.5-37.5h-77A37.54227,37.54227,0,0,0,75,112.50019Zm15,0a22.52523,22.52523,0,0,1,22.5-22.5h77a22.52523,22.52523,0,0,1,22.5,22.5v77a22.52523,22.52523,0,0,1-22.5,22.5h-77a22.52523,22.52523,0,0,1-22.5-22.5Zm42.5,62h37a5,5,0,0,0,5-5v-37a5,5,0,0,0-5-5h-37a5,5,0,0,0-5,5v37A5,5,0,0,0,132.5,174.50019Zm190,52.5h77a37.54225,37.54225,0,0,0,37.5-37.5v-77a37.54226,37.54226,0,0,0-37.5-37.5h-77a37.54227,37.54227,0,0,0-37.5,37.5v77A37.54226,37.54226,0,0,0,322.5,227.00019Zm-22.5-114.5a22.52523,22.52523,0,0,1,22.5-22.5h77a22.52523,22.52523,0,0,1,22.5,22.5v77a22.52523,22.52523,0,0,1-22.5,22.5h-77a22.52523,22.52523,0,0,1-22.5-22.5Zm42.5,62h37a5,5,0,0,0,5-5v-37a5,5,0,0,0-5-5h-37a5,5,0,0,0-5,5v37A5,5,0,0,0,342.5,174.50019Zm34.5,125.5v-15H362v15Zm15,75h15v-15H392Zm-30-15H347v15h15Zm-15-45h15v-15H347Zm-98.5-103v15h15v-15Zm188.5,216.5v-45a7.50006,7.50006,0,0,0-7.5-7.5h-12a7.5,7.5,0,0,0,0,15H422v30H324.5a7.5,7.5,0,0,0,0,15h105A7.50006,7.50006,0,0,0,437,428.50019Zm-114.5-82.5h77a7.5,7.5,0,0,0,0-15h-77a7.5,7.5,0,0,0,0,15Zm30,60h32a7.5,7.5,0,0,0,0-15h-32a7.5,7.5,0,0,0,0,15Zm-183-68.5h-37a5,5,0,0,0-5,5v37a5,5,0,0,0,5,5h37a5,5,0,0,0,5-5v-37A5,5,0,0,0,169.5,337.50019Zm20-52.5h-77a37.54227,37.54227,0,0,0-37.5,37.5v77a37.54226,37.54226,0,0,0,37.5,37.5h77a37.54225,37.54225,0,0,0,37.5-37.5v-77A37.54226,37.54226,0,0,0,189.5,285.00019Zm22.5,114.5a22.52523,22.52523,0,0,1-22.5,22.5h-77a22.52523,22.52523,0,0,1-22.5-22.5v-77a22.52523,22.52523,0,0,1,22.5-22.5h77a22.52523,22.52523,0,0,1,22.5,22.5Zm44-69.5a7.50006,7.50006,0,0,0-7.5,7.5v92a7.5,7.5,0,0,0,15,0v-92A7.50006,7.50006,0,0,0,256,330.00019Zm-7.5-30h15v-15h-15Zm36.5,136h15v-15H285Zm7.5-151a7.50006,7.50006,0,0,0-7.5,7.5v92a7.5,7.5,0,0,0,15,0v-92A7.50006,7.50006,0,0,0,292.5,285.00019Zm24.5,81.5v32a7.5,7.5,0,0,0,15,0v-32a7.5,7.5,0,0,0-15,0Zm112.5-19.5a7.50006,7.50006,0,0,0,7.5-7.5v-47a7.50006,7.50006,0,0,0-7.5-7.5H400.46485a7.5,7.5,0,0,0,0,15H422v39.5A7.50006,7.50006,0,0,0,429.5,347.00019Zm-190.748-257H248.5v99.5a7.5,7.5,0,0,0,15,0v-107a7.50006,7.50006,0,0,0-7.5-7.5H238.752a7.5,7.5,0,0,0,0,15ZM481,256.00019a7.50006,7.50006,0,0,0-7.5-7.5H38.5a7.5,7.5,0,0,0,0,15h435A7.50006,7.50006,0,0,0,481,256.00019Z"/></svg>